<?xml version="1.0" encoding="utf-8"?>
<!-- Generator: Adobe Illustrator 19.2.1, SVG Export Plug-In . SVG Version: 6.00 Build 0)  -->
<svg version="1.1" id="Layer_1" xmlns="http://www.w3.org/2000/svg" xmlns:xlink="http://www.w3.org/1999/xlink" x="0px" y="0px"
	 width="125.4px" height="78.4px" viewBox="0 0 125.4 78.4" style="enable-background:new 0 0 125.4 78.4;" xml:space="preserve">
<style type="text/css">
	.st0{fill:#F9F9F9;}
	.st1{fill:#010101;}
	.st2{fill:#F16522;}
	.st3{fill:#E41B24;}
	.st4{fill:#F89E1C;}
</style>
<g>
	<path class="st0" d="M125.4,74.2c0,2.3-1.9,4.2-4.2,4.2H4.2c-2.3,0-4.2-1.9-4.2-4.2v-70C0,1.9,1.9,0,4.2,0h117.1
		c2.3,0,4.2,1.9,4.2,4.2V74.2z"/>
</g>
<g id="XMLID_24_">
	<path id="XMLID_33_" class="st1" d="M39.5,66.6v-3.7c0-1.4-0.9-2.3-2.3-2.3c-0.8,0-1.5,0.2-2.1,1c-0.4-0.7-1-1-1.9-1
		c-0.6,0-1.2,0.2-1.7,0.9v-0.7h-1.3v5.9h1.3v-3.3c0-1,0.6-1.6,1.4-1.6c0.9,0,1.3,0.6,1.3,1.6v3.3h1.3v-3.3c0-1,0.6-1.6,1.4-1.6
		c0.9,0,1.3,0.6,1.3,1.6v3.3H39.5z M58.7,60.7h-2.1v-1.8h-1.3v1.8h-1.2v1.2h1.2v2.7c0,1.4,0.5,2.2,2,2.2c0.6,0,1.2-0.2,1.6-0.5
		l-0.4-1.1c-0.4,0.2-0.8,0.3-1.1,0.3c-0.6,0-0.9-0.4-0.9-1v-2.7h2.1V60.7z M69.7,60.5c-0.7,0-1.2,0.3-1.6,0.9v-0.7h-1.3v5.9h1.3
		v-3.3c0-1,0.4-1.5,1.3-1.5c0.3,0,0.5,0,0.8,0.1l0.4-1.2C70.3,60.6,69.9,60.5,69.7,60.5 M53.1,61.2c-0.6-0.4-1.5-0.6-2.4-0.6
		c-1.5,0-2.5,0.7-2.5,1.9c0,1,0.7,1.6,2,1.7l0.6,0.1c0.7,0.1,1,0.3,1,0.6c0,0.5-0.5,0.7-1.3,0.7c-0.9,0-1.5-0.3-2-0.6L48,66
		c0.7,0.5,1.6,0.8,2.6,0.8c1.7,0,2.7-0.8,2.7-1.9c0-1-0.8-1.6-2.1-1.8L50.6,63c-0.6-0.1-1-0.2-1-0.6c0-0.4,0.4-0.7,1.1-0.7
		c0.8,0,1.5,0.3,1.8,0.5L53.1,61.2z M87.5,60.5c-0.7,0-1.2,0.3-1.6,0.9v-0.7h-1.3v5.9h1.3v-3.3c0-1,0.4-1.5,1.3-1.5
		c0.3,0,0.5,0,0.8,0.1l0.4-1.2C88.1,60.6,87.7,60.5,87.5,60.5 M70.9,63.6c0,1.8,1.2,3.1,3.1,3.1c0.9,0,1.5-0.2,2.1-0.7l-0.6-1
		c-0.5,0.3-1,0.5-1.5,0.5c-1,0-1.8-0.8-1.8-1.9c0-1.1,0.8-1.9,1.8-1.9c0.6,0,1.1,0.2,1.5,0.5l0.6-1c-0.6-0.5-1.2-0.7-2.1-0.7
		C72.2,60.5,70.9,61.9,70.9,63.6 M83,63.6v-2.9h-1.3v0.7c-0.4-0.5-1-0.9-1.9-0.9c-1.7,0-2.9,1.3-2.9,3.1c0,1.8,1.3,3.1,2.9,3.1
		c0.8,0,1.5-0.3,1.9-0.9v0.7H83V63.6z M78.2,63.6c0-1,0.7-1.9,1.8-1.9c1.1,0,1.8,0.8,1.8,1.9c0,1.1-0.7,1.9-1.8,1.9
		C78.9,65.5,78.2,64.7,78.2,63.6 M62.7,60.5c-1.7,0-2.9,1.3-2.9,3.1c0,1.9,1.3,3.1,3,3.1c0.9,0,1.7-0.2,2.4-0.8L64.6,65
		c-0.5,0.4-1.1,0.6-1.7,0.6c-0.8,0-1.6-0.4-1.8-1.4h4.4c0-0.2,0-0.3,0-0.5C65.5,61.8,64.4,60.5,62.7,60.5 M62.7,61.7
		c0.8,0,1.4,0.5,1.5,1.4h-3.1C61.3,62.3,61.8,61.7,62.7,61.7 M94.9,63.6v-5.3h-1.3v3.1c-0.4-0.5-1-0.9-1.9-0.9
		c-1.7,0-2.9,1.3-2.9,3.1c0,1.8,1.3,3.1,2.9,3.1c0.8,0,1.5-0.3,1.9-0.9v0.7h1.3V63.6z M90.1,63.6c0-1,0.7-1.9,1.8-1.9
		c1.1,0,1.8,0.8,1.8,1.9c0,1.1-0.7,1.9-1.8,1.9C90.8,65.5,90.1,64.7,90.1,63.6 M46.8,63.6v-2.9h-1.3v0.7c-0.4-0.5-1-0.9-1.9-0.9
		c-1.7,0-2.9,1.3-2.9,3.1c0,1.8,1.3,3.1,2.9,3.1c0.8,0,1.5-0.3,1.9-0.9v0.7h1.3V63.6z M42,63.6c0-1,0.7-1.9,1.8-1.9
		c1.1,0,1.8,0.8,1.8,1.9c0,1.1-0.7,1.9-1.8,1.9C42.7,65.5,42,64.7,42,63.6"/>
	<rect id="XMLID_5_" x="52.7" y="15.8" class="st2" width="19.4" height="34.9"/>
	<path id="XMLID_4_" class="st3" d="M53.9,33.2c0-7.1,3.3-13.4,8.5-17.5c-3.8-3-8.5-4.7-13.7-4.7C36.4,11,26.5,21,26.5,33.2
		c0,12.3,9.9,22.2,22.2,22.2c5.2,0,9.9-1.8,13.7-4.7C57.2,46.6,53.9,40.3,53.9,33.2"/>
	<path id="XMLID_27_" class="st4" d="M98.3,33.2c0,12.3-9.9,22.2-22.2,22.2c-5.2,0-9.9-1.8-13.7-4.7c5.2-4.1,8.5-10.4,8.5-17.5
		s-3.3-13.4-8.5-17.5c3.8-3,8.5-4.7,13.7-4.7C88.4,11,98.3,21,98.3,33.2"/>
</g>
</svg>
