<?xml version="1.0" encoding="utf-8"?>
<!-- Generator: Adobe Illustrator 19.2.1, SVG Export Plug-In . SVG Version: 6.00 Build 0)  -->
<svg version="1.1" id="icons" xmlns="http://www.w3.org/2000/svg" xmlns:xlink="http://www.w3.org/1999/xlink" x="0px" y="0px"
	 width="651.9px" height="657.3px" viewBox="0 0 651.9 657.3" style="enable-background:new 0 0 651.9 657.3;" xml:space="preserve"
	>
<style type="text/css">
	.st0{fill:#FFFFFF;}
</style>
<g>
	<path class="st0" d="M615.8,305.9c-2.1-3.7-8.8-6-12.5-3.9L470.1,377c-3.7,2.1-3,7.8-0.9,11.5c1.4,2.5,4,3.9,6.7,3.9
		c1.3,0,4.6,0.7,5.8,0l133.2-75.1C618.6,315.3,617.9,309.6,615.8,305.9z"/>
	<path class="st0" d="M467.7,193.9c2,0,6,0.2,7.5-1.3l35-35.3c3-3,1-8.9-2-11.9c-3-3-9.9-4-12.9-1l-35,35.3c-3,3-1,8.9,2,11.9
		C463.8,193.1,465.8,193.9,467.7,193.9z"/>
	<path class="st0" d="M520.2,255.8c1.5,2,3.8,3,6.1,3c1.6,0,5.3,0.5,6.7-0.6l116.9-89.4c3.4-2.6,2-8.4-0.6-11.8
		c-2.6-3.4-9.4-5-12.8-2.4L519.6,244C516.2,246.6,517.6,252.5,520.2,255.8z"/>
	<path class="st0" d="M315.7,230.6c1.4,1,3,1.5,4.5,1.5c2.4,0,6.7-0.1,8.2-2.2l85.7-117.3c2.5-3.4-0.2-9.3-3.7-11.8
		c-3.4-2.5-10.3-2.8-12.8,0.7L312,218.8C309.5,222.3,312.2,228.1,315.7,230.6z"/>
	<path class="st0" d="M515.9,91.2l-4,24.6c-0.5,2.9,0.8,5.8,3.2,7.5c2.4,1.7,5.6,1.9,8.2,0.4l20.6-11.4l20.6,11.4
		c1.2,0.6,2.4,1,3.7,1c1.6,0,3.1-0.5,4.4-1.4c2.4-1.7,3.6-4.6,3.2-7.5l-4-24.6l17-17.4c2-2.1,2.7-5.1,1.8-7.8
		c-0.9-2.7-3.3-4.7-6.1-5.2l-23.1-3.5l-10.4-22.2c-1.3-2.7-4-4.4-7-4.4c-3,0-5.7,1.7-7,4.4l-10.4,22.2l-23.1,3.5
		c-2.9,0.4-5.2,2.4-6.1,5.2c-0.9,2.7-0.2,5.8,1.8,7.8L515.9,91.2z M532.8,71.9c2.5-0.4,4.7-2,5.8-4.3l5.2-11l5.2,11
		c1.1,2.3,3.3,4,5.8,4.3l12.4,1.9l-9.2,9.4c-1.7,1.8-2.5,4.2-2.1,6.6l2.1,12.8l-10.4-5.8c-1.2-0.6-2.4-1-3.7-1c-1.3,0-2.6,0.3-3.7,1
		l-10.4,5.8l2.1-12.8c0.4-2.4-0.4-4.9-2.1-6.6l-9.2-9.4L532.8,71.9z"/>
	<path class="st0" d="M468.5,301.7l-4-24.6l17-17.4c2-2.1,2.7-5.1,1.8-7.8c-0.9-2.7-3.3-4.7-6.1-5.2l-23.1-3.5l-10.4-22.2
		c-1.3-2.7-4-4.4-7-4.4c-3,0-5.7,1.7-7,4.4l-10.4,22.2l-23.1,3.5c-2.9,0.4-5.2,2.4-6.1,5.2c-0.9,2.7-0.2,5.8,1.8,7.8l17,17.4
		l-4,24.6c-0.5,2.9,0.8,5.8,3.2,7.5c2.4,1.7,5.6,1.9,8.2,0.4l20.6-11.4l20.6,11.4c1.2,0.6,2.4,1,3.7,1c1.6,0,3.1-0.5,4.4-1.4
		C467.7,307.6,469,304.6,468.5,301.7z M450.7,269.2c-1.7,1.8-2.5,4.2-2.1,6.6l2.1,12.8l-10.4-5.8c-2.3-1.3-5.1-1.3-7.4,0l-10.4,5.8
		l2.1-12.8c0.4-2.4-0.4-4.9-2.1-6.6l-9.2-9.4l12.4-1.9c2.5-0.4,4.7-2,5.8-4.3l5.2-11l5.2,11c1.1,2.3,3.3,3.9,5.8,4.3l12.4,1.9
		L450.7,269.2z"/>
	<path class="st0" d="M220.6,168.3c1.4,1.1,3.1,1.7,4.8,1.7c2.3,0,5.5-1,7-2.9c42-52.1,35.8-120.3,12.4-161.5
		c-2.1-3.7-7.8-5-11.5-2.9c-3.7,2.1-8,6.8-5.9,10.5c21,36.8,26.5,97.6-11,144.2C213.8,160.8,217.3,165.7,220.6,168.3z"/>
	<path class="st0" d="M501.6,425.2c-4.1,0.9-8.8,6-7.8,10.2c0.9,4.2,3,7.8,7.2,6.8c50-11.2,114.1,17.8,129.9,78.7
		c0.9,3.5,6,4.8,9.4,4.8c0.6,0,1.3-0.1,1.9-0.2c4.1-1.1,8.6-6.3,7.5-10.4C631.7,445.5,558.6,412.4,501.6,425.2z"/>
	<path class="st0" d="M127.8,604.7l96.9-43.2c0,0,0,0,0,0l100.7-44.9c0,0,0,0,0,0l106.8-47.6c1.5-0.7,2.7-1.8,3.6-3.1
		c23.5-27.7-48.7-114.5-90.7-157c-56.9-57.6-113.5-96.3-140.8-96.3c0,0-0.1,0-0.1,0c-6.3,0-11.4,1.9-15.1,5.7
		c-0.4,0.4-0.7,0.9-1,1.3c-0.3,0.5-0.6,1-0.9,1.5l-74.5,169.5L0.7,646.2c-1.3,3-0.7,6.5,1.7,8.9c1.5,1.5,3.6,2.3,5.6,2.3
		c1.1,0,2.2-0.2,3.2-0.7l107.9-48.1 M417.3,454.7L326.7,495V320.5c1.1,1.1,2.3,2.3,3.4,3.4C403.6,398.3,422.2,447.3,417.3,454.7z
		 M307.3,501.9L233,537.1V245.3c20.6,10.7,41.9,30,74.3,60.3V501.9z M204.9,235.4C204.9,235.4,205,235.4,204.9,235.4
		c2.5,0,5.5,0.6,9,1.6v308.3l-78,36.5V392.4l66.1-156.5C202.6,235.5,203.6,235.4,204.9,235.4z M116.5,430.4v158.2L30,627.2
		L116.5,430.4z"/>
	<path class="st0" d="M341,71.1c19.4,0,35.2-15.9,35.2-35.5C376.2,15.9,360.4,0,341,0c-19.4,0-35.2,15.9-35.2,35.5
		C305.8,55.1,321.6,71.1,341,71.1z M341,17.7c9.6,0,17.5,8,17.5,17.8s-7.8,17.8-17.5,17.8c-9.6,0-17.5-8-17.5-17.8
		S331.4,17.7,341,17.7z"/>
</g>
</svg>
